<svg width="43" height="43" viewBox="0 0 43 43" fill="none" xmlns="http://www.w3.org/2000/svg">
<g clip-path="url(#clip0_35_15)">
<path d="M38.3796 29.24C34.4 29.24 31.0275 31.9043 29.9145 35.5467C28.8353 31.9043 25.4628 29.24 21.4494 29.24C17.5373 29.24 14.1984 31.8031 13.0518 35.3443C13.0181 35.4118 13.0181 35.4792 13.0181 35.5467C13.0181 35.5467 13.0181 35.5467 13.0181 35.5129C13.0181 35.5129 13.0181 35.5129 13.0181 35.5467C12.9843 35.4792 12.9843 35.4118 12.9843 35.3443C11.8377 31.8031 8.53256 29.24 4.58668 29.24C3.54119 29.24 2.56315 29.4086 1.61884 29.7459C4.85648 37.5365 12.5122 43 21.4832 43C30.4204 43 38.1098 37.5365 41.3475 29.7459C40.4369 29.4086 39.4251 29.24 38.3796 29.24Z" fill="#FFD600"/>
<path d="M4.62039 24.1812C8.6 24.1812 11.9725 26.8118 13.0518 30.4541C14.131 26.8118 17.5035 24.1812 21.4831 24.1812C25.4627 24.1812 28.8353 26.8455 29.9482 30.4878C31.0275 26.8455 34.4 24.1812 38.3796 24.1812C39.931 24.1812 41.3812 24.5859 42.629 25.2604C42.8314 24.0463 42.9663 22.7647 42.9663 21.4831C43 9.61176 33.3545 0 21.4831 0C9.61176 0 0 9.61176 0 21.4831C0 22.7647 0.134902 24.0463 0.337255 25.2604C1.61882 24.5859 3.06902 24.1812 4.62039 24.1812Z" fill="#252525"/>
<path d="M33.3545 6.50902C33.8941 6.57647 34.0627 7.25098 33.5906 7.55451L15.6149 19.3584C12.3772 21.4831 9.13959 21.7192 6.71136 21.5169C6.20548 21.4831 6.07058 20.8086 6.47528 20.5388L25.7325 7.92549C28.1945 6.30667 31.4996 6.30667 33.3545 6.50902Z" fill="white"/>
<path d="M22.5286 10.691L12.6133 9.81411C12.0737 9.78039 11.5341 9.91529 11.0619 10.1851L10.2863 10.691L17.2 14.1984L22.5286 10.691Z" fill="white"/>
<path d="M23.6078 13.2878L25.7325 16.4918C26.1372 17.0988 26.2384 17.8745 26.0023 18.5827L25.9012 18.8863L19.291 15.109L23.6078 13.2878Z" fill="white"/>
<path d="M12.1749 17.5035L8.49882 15.8847L7.25098 16.7278L9.30823 19.8643L12.1749 17.5035Z" fill="white"/>
</g>
<defs>
<clipPath id="clip0_35_15">
<rect width="43" height="43" fill="white"/>
</clipPath>
</defs>
</svg>
