<svg width="15" height="15" viewBox="0 0 15 15" fill="none" xmlns="http://www.w3.org/2000/svg">
<g id="more 1" clip-path="url(#clip0_36_380)">
<g id="Group">
<g id="Group_2">
<path id="Vector" d="M1.92809 8.53855C2.70129 8.53855 3.3281 7.91174 3.3281 7.13854C3.3281 6.36533 2.70129 5.73853 1.92809 5.73853C1.15488 5.73853 0.528076 6.36533 0.528076 7.13854C0.528076 7.91174 1.15488 8.53855 1.92809 8.53855Z" fill="#252525"/>
</g>
</g>
<g id="Group_3">
<g id="Group_4">
<path id="Vector_2" d="M7.52806 8.53855C8.30127 8.53855 8.92807 7.91174 8.92807 7.13854C8.92807 6.36533 8.30127 5.73853 7.52806 5.73853C6.75486 5.73853 6.12805 6.36533 6.12805 7.13854C6.12805 7.91174 6.75486 8.53855 7.52806 8.53855Z" fill="#252525"/>
</g>
</g>
<g id="Group_5">
<g id="Group_6">
<path id="Vector_3" d="M13.1281 8.53855C13.9013 8.53855 14.5281 7.91174 14.5281 7.13854C14.5281 6.36533 13.9013 5.73853 13.1281 5.73853C12.3549 5.73853 11.7281 6.36533 11.7281 7.13854C11.7281 7.91174 12.3549 8.53855 13.1281 8.53855Z" fill="#252525"/>
</g>
</g>
</g>
<defs>
<clipPath id="clip0_36_380">
<rect width="14" height="14" fill="white" transform="translate(0.528076 0.138672)"/>
</clipPath>
</defs>
</svg>
